<svg width="225" height="225" viewBox="0 0 225 225" fill="none" xmlns="http://www.w3.org/2000/svg">
<rect width="225" height="225" rx="10" fill="#1A254D"/>
<path d="M123.465 111.596L101.116 98.8674V124.325L123.465 111.596ZM126.515 108.965C126.987 109.23 127.379 109.613 127.652 110.075C127.925 110.537 128.068 111.062 128.068 111.596C128.068 112.13 127.925 112.655 127.652 113.117C127.379 113.579 126.987 113.962 126.515 114.227L102.013 128.184C100.01 129.326 97.2649 128.022 97.2649 125.553V97.6388C97.2649 95.1702 100.01 93.866 102.013 95.0076L126.515 108.965Z" fill="white"/>
<path d="M149.802 189.631H166.709C167.072 189.631 167.419 189.775 167.676 190.031C167.932 190.287 168.076 190.635 168.076 190.997C168.076 191.36 167.932 191.707 167.676 191.963C167.419 192.22 167.072 192.364 166.709 192.364H149.81C149.448 192.364 149.1 192.22 148.844 191.963C148.588 191.707 148.444 191.36 148.444 190.997C148.444 190.635 148.588 190.287 148.844 190.031C149.1 189.775 149.448 189.631 149.81 189.631H149.802Z" fill="white"/>
<path d="M59.2765 189.631H76.1837C76.546 189.631 76.8936 189.775 77.1498 190.031C77.4061 190.287 77.55 190.635 77.55 190.997C77.55 191.36 77.4061 191.707 77.1498 191.963C76.8936 192.22 76.546 192.364 76.1837 192.364H59.2872C58.9258 192.361 58.5798 192.217 58.3243 191.961C58.0688 191.706 57.9243 191.36 57.9221 190.999C57.9211 190.82 57.9553 190.643 58.0228 190.477C58.0903 190.311 58.1898 190.161 58.3156 190.034C58.4414 189.907 58.591 189.806 58.7559 189.737C58.9208 189.667 59.0977 189.631 59.2765 189.631V189.631Z" fill="white"/>
<path d="M167.559 175.929C168.313 175.929 168.924 176.54 168.924 177.294C168.924 178.048 168.313 178.659 167.559 178.659C166.805 178.659 166.194 178.048 166.194 177.294C166.194 176.54 166.805 175.929 167.559 175.929Z" fill="white"/>
<path d="M112.592 180.226C113.346 180.226 113.957 180.837 113.957 181.591C113.957 182.345 113.346 182.956 112.592 182.956C111.838 182.956 111.227 182.345 111.227 181.591C111.227 180.837 111.838 180.226 112.592 180.226Z" fill="white"/>
<path d="M87.2578 177.267H87.325C89.2918 177.298 91.207 177.902 92.8352 179.005C94.4635 180.109 95.734 181.664 96.4906 183.48C97.7321 185.804 99.7404 187.626 102.174 188.637C103.932 189.175 105.824 189.067 107.509 188.331C109.194 187.596 110.56 186.282 111.361 184.627C111.466 184.397 111.633 184.199 111.843 184.057C112.053 183.915 112.298 183.833 112.551 183.821H112.705C112.958 183.833 113.203 183.915 113.413 184.057C113.623 184.199 113.79 184.397 113.895 184.627C114.696 186.282 116.062 187.596 117.747 188.331C119.432 189.067 121.324 189.175 123.082 188.637C125.511 187.619 127.518 185.799 128.765 183.48C129.525 181.653 130.805 180.091 132.446 178.986C134.088 177.881 136.017 177.284 137.996 177.267V177.267C139.879 177.358 141.678 178.078 143.104 179.312C144.529 180.546 145.5 182.223 145.861 184.074C146.316 185.791 146.145 187.615 145.378 189.218C144.611 190.821 143.298 192.098 141.674 192.82C141.351 192.97 140.983 192.987 140.648 192.869C140.312 192.751 140.036 192.506 139.878 192.187C139.72 191.869 139.693 191.501 139.802 191.163C139.911 190.824 140.148 190.542 140.462 190.375C141.527 189.917 142.389 189.089 142.892 188.045C143.394 187 143.502 185.809 143.195 184.692C142.954 183.446 142.314 182.312 141.372 181.462C140.431 180.611 139.238 180.09 137.974 179.976C134.559 179.976 132.928 181.693 131.1 184.845C129.521 187.783 126.941 190.057 123.829 191.256C121.824 191.852 119.688 191.838 117.691 191.216C115.694 190.594 113.928 189.392 112.616 187.763C111.304 189.392 109.537 190.594 107.541 191.216C105.544 191.838 103.407 191.852 101.403 191.256C98.2904 190.057 95.7108 187.783 94.1313 184.845C92.3041 181.696 90.6731 179.976 87.325 179.976H87.282C86.0757 179.97 84.9018 180.365 83.9445 181.099C82.9873 181.833 82.3011 182.864 81.9937 184.031C81.6568 185.265 81.7607 186.579 82.2874 187.745C82.8141 188.911 83.7308 189.857 84.8797 190.421C85.1748 190.615 85.3834 190.915 85.4615 191.26C85.5396 191.604 85.4812 191.965 85.2986 192.268C85.116 192.57 84.8234 192.789 84.4822 192.881C84.1411 192.972 83.7779 192.927 83.469 192.756C81.8088 191.885 80.4955 190.474 79.7464 188.755C78.9973 187.037 78.8574 185.114 79.3497 183.305C79.8157 181.567 80.8443 180.031 82.275 178.939C83.7056 177.847 85.4578 177.259 87.2578 177.267V177.267Z" fill="white"/>
<path d="M57.1385 175.929C57.8924 175.929 58.5035 176.54 58.5035 177.294C58.5035 178.048 57.8924 178.659 57.1385 178.659C56.3846 178.659 55.7734 178.048 55.7734 177.294C55.7734 176.54 56.3846 175.929 57.1385 175.929Z" fill="white"/>
<path d="M53.3065 189.612C54.0603 189.612 54.6715 190.223 54.6715 190.977C54.6715 191.731 54.0603 192.342 53.3065 192.342C52.5526 192.342 51.9414 191.731 51.9414 190.977C51.9414 190.223 52.5526 189.612 53.3065 189.612Z" fill="white"/>
<path d="M172.407 189.612C173.16 189.612 173.772 190.223 173.772 190.977C173.772 191.731 173.16 192.342 172.407 192.342C171.653 192.342 171.042 191.731 171.042 190.977C171.042 190.223 171.653 189.612 172.407 189.612Z" fill="white"/>
<path d="M84.4146 185.866C84.4146 185.139 84.6303 184.427 85.0345 183.822C85.4388 183.218 86.0133 182.746 86.6854 182.468C87.3576 182.189 88.0973 182.116 88.8108 182.258C89.5244 182.4 90.1799 182.751 90.6944 183.265C91.2089 183.78 91.5592 184.435 91.7011 185.149C91.8431 185.862 91.7703 186.602 91.4918 187.274C91.2134 187.946 90.7419 188.521 90.1369 188.925C89.532 189.329 88.8208 189.545 88.0932 189.545C87.1182 189.543 86.1838 189.154 85.4944 188.465C84.805 187.776 84.4167 186.841 84.4146 185.866ZM88.0932 186.836C88.285 186.836 88.4726 186.779 88.6321 186.673C88.7916 186.566 88.916 186.415 88.9894 186.237C89.0628 186.06 89.082 185.865 89.0446 185.677C89.0072 185.489 88.9148 185.316 88.7791 185.18C88.6434 185.045 88.4706 184.952 88.2825 184.915C88.0943 184.877 87.8992 184.897 87.722 184.97C87.5447 185.043 87.3932 185.168 87.2866 185.327C87.1801 185.487 87.1232 185.674 87.1232 185.866C87.126 186.122 87.2292 186.367 87.4106 186.548C87.5919 186.729 87.837 186.831 88.0932 186.834V186.836Z" fill="white"/>
<path d="M137.662 182.188C138.389 182.188 139.101 182.403 139.706 182.808C140.31 183.212 140.782 183.786 141.06 184.458C141.339 185.131 141.412 185.87 141.27 186.584C141.128 187.297 140.777 187.953 140.263 188.467C139.749 188.982 139.093 189.332 138.379 189.474C137.666 189.616 136.926 189.543 136.254 189.265C135.582 188.986 135.007 188.515 134.603 187.91C134.199 187.305 133.983 186.594 133.983 185.866C133.985 184.891 134.374 183.957 135.063 183.267C135.752 182.578 136.687 182.19 137.662 182.188V182.188ZM137.662 186.836C137.854 186.836 138.041 186.779 138.201 186.673C138.36 186.566 138.485 186.415 138.558 186.237C138.631 186.06 138.651 185.865 138.613 185.677C138.576 185.489 138.483 185.316 138.348 185.18C138.212 185.045 138.039 184.952 137.851 184.915C137.663 184.877 137.468 184.897 137.291 184.97C137.113 185.043 136.962 185.168 136.855 185.327C136.749 185.487 136.692 185.674 136.692 185.866C136.694 186.123 136.797 186.368 136.978 186.55C137.16 186.731 137.405 186.834 137.662 186.836Z" fill="white"/>
<path d="M116.313 183.571C116.145 183.512 115.99 183.419 115.858 183.298C115.726 183.178 115.62 183.032 115.545 182.87C115.469 182.708 115.427 182.532 115.421 182.354C115.415 182.175 115.444 181.997 115.507 181.83C115.635 181.496 115.889 181.224 116.214 181.073C116.539 180.923 116.91 180.905 117.248 181.024C117.469 181.113 122.757 182.875 126.809 176.574C126.935 176.385 127.105 176.23 127.304 176.122C127.504 176.015 127.727 175.958 127.954 175.956C128.213 175.954 128.467 176.031 128.682 176.177C128.834 176.272 128.965 176.397 129.068 176.543C129.171 176.689 129.244 176.855 129.283 177.03C129.322 177.205 129.326 177.385 129.295 177.562C129.264 177.738 129.198 177.907 129.101 178.058C127.918 180.297 126.005 182.065 123.679 183.068C121.353 184.071 118.754 184.248 116.313 183.571V183.571Z" fill="white"/>
<path d="M108.956 183.571C107.512 184.03 105.98 184.144 104.485 183.902C102.751 183.598 101.106 182.913 99.6697 181.896C98.2332 180.878 97.0409 179.555 96.1788 178.02C96.0802 177.87 96.0129 177.701 95.9806 177.524C95.9483 177.348 95.9518 177.166 95.9909 176.991C96.03 176.816 96.1039 176.65 96.2081 176.503C96.3124 176.357 96.445 176.233 96.598 176.139C96.8128 175.993 97.0667 175.917 97.3262 175.919C97.553 175.92 97.7759 175.977 97.9755 176.085C98.1751 176.193 98.3452 176.348 98.4709 176.537C102.502 182.838 107.79 181.075 108.032 180.987C108.199 180.923 108.377 180.894 108.555 180.9C108.734 180.907 108.909 180.949 109.071 181.024C109.234 181.099 109.379 181.206 109.5 181.338C109.62 181.47 109.713 181.624 109.773 181.793C109.836 181.963 109.866 182.144 109.859 182.326C109.852 182.508 109.81 182.686 109.734 182.852C109.658 183.017 109.55 183.166 109.417 183.289C109.283 183.413 109.127 183.509 108.956 183.571V183.571Z" fill="white"/>
<path d="M171.635 179.85L178.267 187.374V176.515C178.267 176.153 178.411 175.805 178.667 175.549C178.924 175.293 179.271 175.149 179.634 175.149C179.996 175.149 180.343 175.293 180.6 175.549C180.856 175.805 181 176.153 181 176.515V190.977C181.001 191.254 180.917 191.524 180.761 191.752C180.604 191.981 180.381 192.155 180.122 192.253C179.863 192.352 179.581 192.368 179.312 192.302C179.044 192.235 178.802 192.088 178.619 191.88L169.609 181.637C169.49 181.503 169.399 181.347 169.341 181.178C169.284 181.009 169.26 180.83 169.272 180.651C169.284 180.473 169.332 180.298 169.413 180.139C169.493 179.979 169.605 179.837 169.741 179.721C169.872 179.602 170.026 179.51 170.194 179.452C170.361 179.394 170.539 179.37 170.716 179.382C170.893 179.394 171.065 179.442 171.223 179.522C171.381 179.602 171.521 179.714 171.635 179.85V179.85Z" fill="white"/>
<path d="M45.8389 175.137C46.2003 175.139 46.5462 175.283 46.8018 175.539C47.0573 175.794 47.2018 176.14 47.2039 176.502V187.363L53.8357 179.839C54.0777 179.588 54.407 179.44 54.7554 179.424C55.1038 179.409 55.4447 179.529 55.7077 179.758C55.9706 179.987 56.1354 180.308 56.1681 180.655C56.2008 181.003 56.0988 181.349 55.8832 181.623L46.8734 191.891C46.6904 192.097 46.4488 192.244 46.1806 192.31C45.9125 192.376 45.6306 192.359 45.3724 192.261C45.1142 192.163 44.892 191.989 44.7353 191.761C44.5786 191.534 44.4949 191.264 44.4953 190.988V176.515C44.4907 176.336 44.522 176.157 44.5874 175.99C44.6528 175.823 44.751 175.671 44.8763 175.542C45.0015 175.414 45.1512 175.312 45.3165 175.242C45.4818 175.172 45.6595 175.137 45.8389 175.137V175.137Z" fill="white"/>
<path d="M142.026 173.793C141.704 173.828 141.381 173.747 141.114 173.563C140.848 173.379 140.657 173.105 140.577 172.791C140.497 172.478 140.532 172.146 140.677 171.857C140.821 171.567 141.066 171.34 141.365 171.216C143.196 170.315 145.206 169.833 147.247 169.805C150.162 169.852 152.969 170.92 155.179 172.823C157.068 174.41 158.632 176.347 159.785 178.528C159.937 178.835 159.966 179.188 159.866 179.516C159.766 179.843 159.545 180.12 159.247 180.29C157.861 181.097 155.459 181.612 151.801 179.388C150.546 178.609 149.375 177.701 148.308 176.679C146.632 174.989 144.4 173.963 142.026 173.793V173.793ZM150.154 174.653L150.222 174.72C151.908 176.498 154.086 177.733 156.477 178.267C155.63 177.024 154.622 175.898 153.481 174.919C151.729 173.375 149.472 172.529 147.137 172.541C148.221 173.124 149.234 173.832 150.154 174.65V174.653Z" fill="white"/>
<path d="M66.6794 180.29C66.382 180.12 66.1607 179.843 66.0608 179.516C65.9609 179.188 65.99 178.835 66.142 178.528C67.295 176.346 68.859 174.408 70.7477 172.82C72.9552 170.914 75.7635 169.845 78.68 169.803C80.7217 169.826 82.7321 170.308 84.562 171.213C84.8437 171.352 85.0691 171.584 85.2006 171.869C85.332 172.154 85.3615 172.476 85.2841 172.78C85.2066 173.085 85.027 173.353 84.7752 173.541C84.5234 173.729 84.2148 173.824 83.901 173.812C81.5291 173.971 79.2966 174.99 77.6213 176.676C76.5546 177.699 75.3838 178.606 74.128 179.385C73.0958 180.218 71.8504 180.745 70.5335 180.905C69.2166 181.065 67.8812 180.852 66.6794 180.29ZM75.7994 174.648C76.7176 173.825 77.7306 173.115 78.817 172.533C76.91 172.65 75.061 173.233 73.4323 174.232C71.8037 175.231 70.4453 176.615 69.4767 178.262C71.8681 177.728 74.0461 176.493 75.7322 174.715L75.7994 174.648Z" fill="white"/>
<path d="M174.585 165.705C174.889 165.705 175.185 165.807 175.424 165.995C175.664 166.182 175.834 166.444 175.907 166.739C176.169 167.562 176.248 168.433 176.137 169.289C176.027 170.146 175.73 170.968 175.268 171.697C174.181 173.146 172.565 174.104 170.772 174.363C170.432 174.41 170.087 174.327 169.805 174.131C169.523 173.935 169.325 173.639 169.251 173.304C168.923 172.448 168.811 171.524 168.923 170.614C169.036 169.705 169.37 168.836 169.896 168.086C170.422 167.335 171.125 166.725 171.942 166.31C172.759 165.894 173.666 165.685 174.583 165.702L174.585 165.705ZM173.043 170.155C173.323 169.714 173.469 169.201 173.462 168.679C173.015 168.84 172.619 169.119 172.317 169.486C171.941 169.986 171.751 170.602 171.78 171.227C172.283 170.982 172.717 170.614 173.04 170.157L173.043 170.155Z" fill="white"/>
<path d="M165.731 185.401C164.645 186.85 163.028 187.809 161.236 188.067C160.895 188.114 160.55 188.031 160.268 187.835C159.986 187.639 159.788 187.344 159.715 187.008C159.425 186.081 159.354 185.099 159.507 184.14C159.66 183.18 160.032 182.269 160.596 181.478C161.15 180.846 161.83 180.337 162.593 179.984C163.356 179.632 164.184 179.443 165.024 179.431V179.431C165.329 179.431 165.624 179.533 165.864 179.72C166.103 179.908 166.273 180.17 166.346 180.465C166.616 181.282 166.7 182.149 166.594 183.002C166.487 183.856 166.193 184.675 165.731 185.401V185.401ZM162.757 183.176C162.38 183.677 162.19 184.292 162.219 184.918C162.727 184.687 163.161 184.321 163.474 183.859C163.754 183.418 163.9 182.906 163.893 182.384C163.45 182.542 163.058 182.816 162.757 183.176V183.176Z" fill="white"/>
<path d="M54.7597 174.365C52.9691 174.102 51.354 173.145 50.2642 171.7C49.8073 170.968 49.5137 170.146 49.4033 169.291C49.2929 168.435 49.3684 167.566 49.6247 166.742C49.702 166.449 49.873 166.189 50.1117 166.003C50.3504 165.816 50.6437 165.712 50.9467 165.708C51.7872 165.721 52.6156 165.91 53.3784 166.263C54.1412 166.616 54.8214 167.125 55.375 167.758C55.9375 168.55 56.3097 169.461 56.4626 170.42C56.6154 171.379 56.5449 172.36 56.2564 173.288C56.1915 173.625 56.0004 173.924 55.7221 174.124C55.4439 174.324 55.0995 174.411 54.7597 174.365V174.365ZM53.2845 169.475C52.9779 169.102 52.5729 168.823 52.1156 168.669C52.1067 169.191 52.2525 169.704 52.5348 170.144C52.8583 170.596 53.2897 170.96 53.7896 171.203C53.8148 170.587 53.6374 169.98 53.2845 169.475V169.475Z" fill="white"/>
<path d="M64.1003 188.069C62.3096 187.806 60.6946 186.849 59.6048 185.404C59.1479 184.672 58.8542 183.85 58.7439 182.995C58.6335 182.139 58.709 181.27 58.9652 180.446C59.0426 180.153 59.2136 179.893 59.4523 179.707C59.691 179.52 59.9842 179.416 60.2873 179.412C61.1276 179.424 61.9559 179.613 62.7187 179.966C63.4815 180.318 64.1618 180.827 64.7156 181.459C65.2781 182.251 65.6502 183.162 65.8031 184.121C65.956 185.08 65.8854 186.062 65.597 186.989C65.5297 187.325 65.3381 187.623 65.0606 187.823C64.783 188.023 64.44 188.111 64.1003 188.069V188.069ZM62.6009 183.179C62.2943 182.806 61.8894 182.527 61.432 182.373C61.4231 182.895 61.5689 183.408 61.8512 183.848C62.1747 184.3 62.606 184.664 63.106 184.907C63.1421 184.29 62.9646 183.68 62.6036 183.179H62.6009Z" fill="white"/>
<path d="M75.1981 35.0151L58.2909 35.0151C57.9285 35.0151 57.581 34.8711 57.3247 34.6149C57.0685 34.3586 56.9246 34.0111 56.9246 33.6487C56.9246 33.2863 57.0685 32.9388 57.3247 32.6825C57.581 32.4263 57.9285 32.2823 58.2909 32.2823L75.1901 32.2823C75.5524 32.2823 75.9 32.4263 76.1562 32.6825C76.4125 32.9388 76.5564 33.2863 76.5564 33.6487C76.5564 34.0111 76.4125 34.3586 76.1562 34.6149C75.9 34.8711 75.5524 35.0151 75.1901 35.0151H75.1981Z" fill="white"/>
<path d="M165.724 35.0151L148.816 35.0151C148.454 35.0151 148.106 34.8711 147.85 34.6149C147.594 34.3586 147.45 34.0111 147.45 33.6487C147.45 33.2863 147.594 32.9388 147.85 32.6825C148.106 32.4263 148.454 32.2823 148.816 32.2823L165.713 32.2823C166.074 32.2844 166.42 32.4289 166.676 32.6845C166.931 32.94 167.076 33.286 167.078 33.6473C167.079 33.8261 167.045 34.0034 166.977 34.1689C166.91 34.3344 166.81 34.4851 166.684 34.6121C166.559 34.7391 166.409 34.8401 166.244 34.9093C166.079 34.9784 165.902 35.0144 165.724 35.0151V35.0151Z" fill="white"/>
<path d="M57.4418 48.7166C56.6879 48.7166 56.0768 48.1054 56.0768 47.3516C56.0768 46.5977 56.6879 45.9865 57.4418 45.9865C58.1957 45.9865 58.8069 46.5977 58.8069 47.3516C58.8069 48.1054 58.1957 48.7166 57.4418 48.7166Z" fill="white"/>
<path d="M112.409 44.42C111.655 44.42 111.044 43.8088 111.044 43.0549C111.044 42.301 111.655 41.6899 112.409 41.6899C113.163 41.6899 113.774 42.301 113.774 43.0549C113.774 43.8088 113.163 44.42 112.409 44.42Z" fill="white"/>
<path d="M137.742 47.3785H137.675C135.708 47.3482 133.793 46.7442 132.165 45.6405C130.537 44.5369 129.266 42.9817 128.51 41.1659C127.268 38.8419 125.26 37.0197 122.826 36.0094C121.069 35.4711 119.176 35.5794 117.491 36.3147C115.806 37.05 114.44 38.3637 113.639 40.0185C113.534 40.2492 113.367 40.4465 113.157 40.5887C112.947 40.7309 112.702 40.8125 112.449 40.8247H112.296C112.042 40.8125 111.797 40.7309 111.587 40.5887C111.377 40.4465 111.211 40.2492 111.105 40.0185C110.305 38.3637 108.938 37.05 107.253 36.3147C105.568 35.5794 103.676 35.4711 101.918 36.0094C99.489 37.0265 97.4827 38.8469 96.2349 41.1659C95.4751 42.9925 94.195 44.5553 92.5538 45.6599C90.9127 46.7645 88.9829 47.3622 87.0047 47.3785V47.3785C85.1212 47.2876 83.3226 46.5676 81.8967 45.3336C80.4708 44.0996 79.5 42.423 79.1396 40.5721C78.684 38.8545 78.8551 37.0308 79.6223 35.428C80.3895 33.8252 81.7026 32.548 83.3261 31.8256C83.6489 31.6764 84.0172 31.659 84.3527 31.7772C84.6881 31.8954 84.9641 32.1398 85.1221 32.4585C85.28 32.7771 85.3073 33.1448 85.1982 33.4833C85.0891 33.8218 84.8523 34.1044 84.538 34.2709C83.4737 34.7293 82.6109 35.557 82.1087 36.6014C81.6065 37.6458 81.4987 38.8365 81.8052 39.9541C82.0466 41.1999 82.6863 42.3335 83.628 43.1841C84.5697 44.0347 85.7624 44.5562 87.0262 44.6699C90.4415 44.6699 92.0726 42.9529 93.8998 39.8009C95.4793 36.8633 98.0589 34.5888 101.171 33.3895C103.176 32.7941 105.312 32.8083 107.309 33.4303C109.306 34.0524 111.072 35.2541 112.384 36.8827C113.696 35.2541 115.463 34.0524 117.46 33.4303C119.456 32.8083 121.593 32.7941 123.598 33.3895C126.71 34.5888 129.289 36.8633 130.869 39.8009C132.696 42.9502 134.327 44.6699 137.675 44.6699H137.718C138.925 44.6758 140.098 44.2807 141.056 43.5467C142.013 42.8127 142.699 41.7815 143.007 40.6151C143.343 39.3806 143.24 38.0673 142.713 36.9011C142.186 35.7348 141.269 34.7886 140.121 34.2252C139.825 34.0313 139.617 33.7306 139.539 33.3863C139.461 33.0419 139.519 32.6807 139.702 32.3784C139.884 32.0762 140.177 31.8565 140.518 31.7654C140.859 31.6743 141.222 31.719 141.531 31.8901C143.191 32.7607 144.505 34.172 145.254 35.8905C146.003 37.609 146.143 39.5317 145.651 41.3406C145.185 43.0792 144.156 44.6146 142.725 45.7069C141.295 46.7992 139.542 47.387 137.742 47.3785V47.3785Z" fill="white"/>
<path d="M167.862 48.7166C167.108 48.7166 166.497 48.1054 166.497 47.3516C166.497 46.5977 167.108 45.9865 167.862 45.9865C168.616 45.9865 169.227 46.5977 169.227 47.3516C169.227 48.1054 168.616 48.7166 167.862 48.7166Z" fill="white"/>
<path d="M171.694 35.0339C170.94 35.0339 170.329 34.4228 170.329 33.6689C170.329 32.915 170.94 32.3038 171.694 32.3038C172.448 32.3038 173.059 32.915 173.059 33.6689C173.059 34.4228 172.448 35.0339 171.694 35.0339Z" fill="white"/>
<path d="M52.5939 35.0339C51.84 35.0339 51.2289 34.4228 51.2289 33.6689C51.2289 32.915 51.84 32.3038 52.5939 32.3038C53.3478 32.3038 53.959 32.915 53.959 33.6689C53.959 34.4228 53.3478 35.0339 52.5939 35.0339Z" fill="white"/>
<path d="M140.586 38.7798C140.586 39.5074 140.37 40.2186 139.966 40.8236C139.561 41.4285 138.987 41.9 138.315 42.1784C137.643 42.4569 136.903 42.5297 136.189 42.3878C135.476 42.2458 134.82 41.8955 134.306 41.381C133.791 40.8665 133.441 40.2111 133.299 39.4975C133.157 38.7839 133.23 38.0443 133.508 37.3721C133.787 36.6999 134.258 36.1254 134.863 35.7212C135.468 35.317 136.179 35.1012 136.907 35.1012C137.882 35.1033 138.816 35.4916 139.506 36.181C140.195 36.8704 140.584 37.8048 140.586 38.7798ZM136.907 37.8098C136.715 37.8098 136.528 37.8667 136.368 37.9733C136.209 38.0799 136.084 38.2314 136.011 38.4086C135.937 38.5859 135.918 38.7809 135.956 38.9691C135.993 39.1573 136.085 39.3301 136.221 39.4658C136.357 39.6014 136.53 39.6938 136.718 39.7312C136.906 39.7687 137.101 39.7495 137.278 39.676C137.456 39.6026 137.607 39.4783 137.714 39.3187C137.82 39.1592 137.877 38.9717 137.877 38.7798C137.874 38.5237 137.771 38.2788 137.59 38.098C137.408 37.9171 137.163 37.8146 136.907 37.8125V37.8098Z" fill="white"/>
<path d="M87.3379 42.4585C86.6104 42.4585 85.8992 42.2427 85.2942 41.8385C84.6893 41.4343 84.2178 40.8598 83.9394 40.1876C83.6609 39.5154 83.5881 38.7757 83.73 38.0622C83.8719 37.3486 84.2223 36.6931 84.7368 36.1786C85.2512 35.6642 85.9067 35.3138 86.6203 35.1719C87.3339 35.0299 88.0735 35.1028 88.7457 35.3812C89.4179 35.6596 89.9924 36.1311 90.3967 36.7361C90.8009 37.341 91.0166 38.0523 91.0166 38.7798C91.0145 39.7548 90.6262 40.6892 89.9368 41.3787C89.2474 42.0681 88.3129 42.4563 87.3379 42.4585V42.4585ZM87.3379 37.8098C87.1461 37.8098 86.9585 37.8667 86.799 37.9733C86.6395 38.0799 86.5152 38.2314 86.4418 38.4086C86.3684 38.5859 86.3491 38.7809 86.3865 38.9691C86.4239 39.1573 86.5164 39.3301 86.652 39.4658C86.7877 39.6014 86.9606 39.6938 87.1487 39.7312C87.3369 39.7687 87.5319 39.7495 87.7091 39.676C87.8864 39.6026 88.0379 39.4783 88.1445 39.3187C88.2511 39.1592 88.308 38.9717 88.308 38.7798C88.3059 38.5232 88.203 38.2777 88.0216 38.0962C87.8401 37.9148 87.5945 37.8119 87.3379 37.8098Z" fill="white"/>
<path d="M108.687 41.0745C108.856 41.1344 109.01 41.2273 109.142 41.3477C109.274 41.4681 109.381 41.6137 109.456 41.7758C109.531 41.938 109.573 42.1135 109.579 42.292C109.586 42.4706 109.557 42.6486 109.493 42.8157C109.365 43.1504 109.112 43.4219 108.786 43.5725C108.461 43.723 108.09 43.7407 107.752 43.6219C107.532 43.5332 102.244 41.7705 98.1914 48.0717C98.0659 48.2607 97.8958 48.4158 97.6962 48.5236C97.4966 48.6314 97.2736 48.6884 97.0468 48.6897C96.7873 48.6918 96.5333 48.615 96.3186 48.4694C96.167 48.3739 96.0357 48.2494 95.9325 48.103C95.8293 47.9565 95.756 47.7911 95.7171 47.6162C95.6781 47.4414 95.6741 47.2605 95.7054 47.0841C95.7367 46.9077 95.8026 46.7392 95.8994 46.5884C97.0826 44.3488 98.9958 42.581 101.322 41.5781C103.648 40.5752 106.246 40.3975 108.687 41.0745V41.0745Z" fill="white"/>
<path d="M116.045 41.0744C117.489 40.6156 119.02 40.5024 120.516 40.7439C122.25 41.0476 123.894 41.7329 125.331 42.7502C126.767 43.7675 127.96 45.0913 128.822 46.626C128.92 46.7762 128.988 46.9447 129.02 47.1215C129.052 47.2982 129.049 47.4797 129.01 47.655C128.97 47.8304 128.897 47.9962 128.792 48.1425C128.688 48.2888 128.556 48.4128 128.402 48.5069C128.188 48.6526 127.934 48.7294 127.674 48.7273C127.448 48.7258 127.225 48.6686 127.025 48.5609C126.825 48.4531 126.655 48.298 126.53 48.1092C122.499 41.808 117.211 43.5707 116.969 43.6594C116.802 43.7227 116.624 43.7519 116.445 43.7455C116.267 43.7391 116.091 43.6971 115.929 43.622C115.767 43.547 115.621 43.4403 115.501 43.3083C115.38 43.1763 115.288 43.0216 115.228 42.8533C115.164 42.6829 115.135 42.5016 115.142 42.3199C115.148 42.1381 115.191 41.9594 115.267 41.7942C115.342 41.6289 115.45 41.4802 115.584 41.3567C115.717 41.2332 115.874 41.1373 116.045 41.0744V41.0744Z" fill="white"/>
<path d="M53.3649 44.7961L46.7332 37.2723L46.7332 48.1308C46.7332 48.4932 46.5891 48.8407 46.3329 49.097C46.0766 49.3532 45.7291 49.4972 45.3667 49.4972C45.0043 49.4972 44.6568 49.3532 44.4006 49.097C44.1443 48.8407 44.0004 48.4932 44.0004 48.1308L44.0004 33.6689C43.9993 33.3921 44.0829 33.1216 44.2397 32.8935C44.3965 32.6654 44.6192 32.4906 44.878 32.3925C45.1368 32.2943 45.4192 32.2775 45.6878 32.3443C45.9565 32.411 46.1983 32.5581 46.3811 32.766L55.391 43.0092C55.51 43.1428 55.601 43.2988 55.6588 43.468C55.7167 43.6373 55.7403 43.8164 55.728 43.9949C55.7158 44.1733 55.668 44.3475 55.5875 44.5072C55.507 44.667 55.3954 44.8091 55.2593 44.9251C55.128 45.0443 54.974 45.1358 54.8065 45.1941C54.639 45.2523 54.4615 45.2761 54.2846 45.2641C54.1077 45.252 53.9351 45.2044 53.777 45.124C53.619 45.0435 53.4788 44.932 53.3649 44.7961V44.7961Z" fill="white"/>
<path d="M179.162 49.5094C178.8 49.5073 178.454 49.3628 178.199 49.1073C177.943 48.8517 177.799 48.5058 177.797 48.1444V37.2831L171.165 44.807C170.923 45.058 170.593 45.2065 170.245 45.2216C169.897 45.2367 169.556 45.1174 169.293 44.8883C169.03 44.6592 168.865 44.3378 168.832 43.9906C168.8 43.6434 168.902 43.2969 169.117 43.0228L178.127 32.7554C178.31 32.5485 178.552 32.4023 178.82 32.3361C179.088 32.27 179.37 32.2871 179.628 32.3851C179.886 32.4831 180.109 32.6574 180.265 32.8849C180.422 33.1123 180.506 33.3821 180.505 33.6582V48.1309C180.51 48.3103 180.479 48.4888 180.413 48.6558C180.348 48.8229 180.249 48.9751 180.124 49.1036C179.999 49.2321 179.849 49.3342 179.684 49.4039C179.519 49.4736 179.341 49.5095 179.162 49.5094V49.5094Z" fill="white"/>
<path d="M82.9747 50.8529C83.2963 50.8174 83.6199 50.8991 83.8861 51.0831C84.1522 51.2671 84.343 51.541 84.4234 51.8545C84.5038 52.1679 84.4684 52.4998 84.3237 52.7892C84.179 53.0786 83.9347 53.3061 83.6357 53.4298C81.8041 54.331 79.7948 54.8129 77.7537 54.8405C74.838 54.7934 72.0311 53.7256 69.8214 51.8229C67.9328 50.2359 66.3689 48.2988 65.2156 46.1182C65.0636 45.8112 65.0346 45.4578 65.1345 45.1302C65.2344 44.8025 65.4557 44.5254 65.7531 44.3554C67.1396 43.5493 69.5419 43.0334 73.199 45.2583C74.4549 46.0366 75.6257 46.9445 76.6922 47.9669C78.3682 49.6573 80.6003 50.6827 82.9747 50.8529V50.8529ZM74.8462 49.993L74.779 49.9258C73.0928 48.1478 70.915 46.9129 68.5235 46.3788C69.3707 47.6217 70.378 48.7475 71.5196 49.727C73.271 51.271 75.5289 52.1174 77.8638 52.105C76.7794 51.5215 75.7668 50.8136 74.8462 49.9957V49.993Z" fill="white"/>
<path d="M158.321 44.3555C158.618 44.5254 158.84 44.8025 158.94 45.1302C159.04 45.4578 159.011 45.8113 158.859 46.1182C157.705 48.2998 156.142 50.2378 154.253 51.8256C152.045 53.7321 149.237 54.8005 146.321 54.8432C144.279 54.8204 142.268 54.3383 140.438 53.4325C140.157 53.2936 139.931 53.0622 139.8 52.7769C139.668 52.4917 139.639 52.1699 139.716 51.8655C139.794 51.5611 139.974 51.2926 140.225 51.1048C140.477 50.9171 140.786 50.8215 141.099 50.8341C143.471 50.6746 145.704 49.6563 147.379 47.9696C148.446 46.9473 149.617 46.0395 150.872 45.2611C151.905 44.4278 153.15 43.901 154.467 43.7409C155.784 43.5808 157.119 43.7938 158.321 44.3555ZM149.201 49.9984C148.283 50.8209 147.27 51.5308 146.183 52.1131C148.09 51.9962 149.94 51.4126 151.568 50.4137C153.197 49.4148 154.555 48.0311 155.524 46.3843C153.132 46.9184 150.954 48.1532 149.268 49.9312L149.201 49.9984Z" fill="white"/>
<path d="M50.4151 58.9411C50.111 58.9405 49.8157 58.8384 49.5762 58.651C49.3367 58.4636 49.1667 58.2016 49.093 57.9065C48.831 57.0836 48.7525 56.2133 48.8629 55.3568C48.9734 54.5002 49.2703 53.6783 49.7325 52.9488C50.819 51.5001 52.4356 50.5415 54.228 50.2832C54.5682 50.236 54.9137 50.3187 55.1956 50.515C55.4775 50.7112 55.6751 51.0065 55.749 51.3419C56.0768 52.1981 56.1895 53.1216 56.0771 54.0314C55.9647 54.9412 55.6306 55.8096 55.1042 56.5601C54.5779 57.3107 53.8752 57.9206 53.0581 58.3362C52.241 58.7518 51.3343 58.9604 50.4177 58.9437L50.4151 58.9411ZM51.9574 54.4912C51.6774 54.9318 51.5317 55.4444 51.5382 55.9664C51.9855 55.8058 52.3811 55.5273 52.683 55.1603C53.0595 54.6602 53.2494 54.0444 53.2203 53.4191C52.7171 53.6641 52.2837 54.032 51.9601 54.4886L51.9574 54.4912Z" fill="white"/>
<path d="M59.2694 39.2446C60.3559 37.7959 61.9725 36.8373 63.7648 36.579C64.105 36.5317 64.4506 36.6145 64.7325 36.8107C65.0144 37.0069 65.212 37.3022 65.2858 37.6377C65.5755 38.5649 65.6467 39.5467 65.4938 40.5061C65.3409 41.4654 64.9681 42.3764 64.4045 43.1677C63.8507 43.7999 63.1703 44.3087 62.4075 44.6614C61.6447 45.0141 60.8164 45.2028 59.9761 45.2153V45.2153C59.6719 45.2152 59.3763 45.1133 59.1367 44.9258C58.8971 44.7383 58.7272 44.4761 58.654 44.1808C58.3847 43.3637 58.3003 42.4971 58.4067 41.6435C58.5131 40.7898 58.8077 39.9705 59.2694 39.2446V39.2446ZM62.244 41.4695C62.6205 40.9694 62.8106 40.3535 62.7814 39.7282C62.2738 39.9591 61.8395 40.3254 61.5265 40.787C61.2464 41.2275 61.1009 41.7401 61.1074 42.2622C61.5502 42.104 61.9426 41.8303 62.244 41.4695V41.4695Z" fill="white"/>
<path d="M170.241 50.2806C172.031 50.5436 173.646 51.5013 174.736 52.9462C175.193 53.6779 175.487 54.4997 175.597 55.3552C175.708 56.2108 175.632 57.0801 175.376 57.9039C175.298 58.1969 175.127 58.4566 174.889 58.6434C174.65 58.8302 174.357 58.9338 174.054 58.9384C173.213 58.9254 172.385 58.7363 171.622 58.3831C170.859 58.0299 170.179 57.5206 169.625 56.8881C169.063 56.0963 168.691 55.1854 168.538 54.2262C168.385 53.2671 168.456 52.2855 168.744 51.3581C168.809 51.0214 169 50.7223 169.278 50.522C169.557 50.3217 169.901 50.2353 170.241 50.2806V50.2806ZM171.716 55.1711C172.023 55.5439 172.428 55.8232 172.885 55.9772C172.894 55.4549 172.748 54.9416 172.466 54.502C172.142 54.05 171.711 53.6861 171.211 53.4433C171.186 54.059 171.363 54.666 171.716 55.1711V55.1711Z" fill="white"/>
<path d="M160.9 36.5764C162.691 36.8395 164.306 37.7971 165.396 39.242C165.853 39.9738 166.146 40.7955 166.257 41.6511C166.367 42.5067 166.291 43.376 166.035 44.1997C165.958 44.4928 165.787 44.7525 165.548 44.9393C165.309 45.1261 165.016 45.2296 164.713 45.2343C163.873 45.2218 163.045 45.0331 162.282 44.6804C161.519 44.3277 160.839 43.8188 160.285 43.1867C159.722 42.3949 159.35 41.4839 159.197 40.5248C159.045 39.5656 159.115 38.5841 159.404 37.6567C159.471 37.321 159.662 37.0232 159.94 36.8229C160.217 36.6226 160.56 36.5345 160.9 36.5764V36.5764ZM162.4 41.467C162.706 41.8397 163.111 42.119 163.569 42.2731C163.577 41.7508 163.432 41.2375 163.149 40.7979C162.826 40.3459 162.394 39.982 161.894 39.7392C161.858 40.3557 162.036 40.9659 162.397 41.467H162.4Z" fill="white"/>
<path d="M56.7211 111.659C56.7211 112.413 56.1099 113.024 55.356 113.024C54.6021 113.024 53.991 112.413 53.991 111.659C53.991 110.905 54.6021 110.294 55.356 110.294C56.1099 110.294 56.7211 110.905 56.7211 111.659Z" fill="white"/>
<path d="M59.6794 86.3253V86.3925C59.6491 88.3593 59.0451 90.2745 57.9414 91.9027C56.8378 93.531 55.2826 94.8015 53.4668 95.5581C51.1428 96.7996 49.3206 98.8079 48.3103 101.241C47.772 102.999 47.8803 104.892 48.6156 106.576C49.3509 108.261 50.6646 109.628 52.3195 110.429C52.5502 110.534 52.7474 110.701 52.8896 110.911C53.0318 111.121 53.1134 111.366 53.1256 111.619V111.772C53.1134 112.025 53.0318 112.27 52.8896 112.48C52.7474 112.69 52.5502 112.857 52.3195 112.962C50.6646 113.763 49.3509 115.13 48.6156 116.815C47.8803 118.499 47.772 120.392 48.3103 122.15C49.3274 124.579 51.1478 126.585 53.4668 127.833C55.2934 128.593 56.8562 129.873 57.9608 131.514C59.0654 133.155 59.6631 135.085 59.6794 137.063V137.063C59.5885 138.947 58.8685 140.745 57.6345 142.171C56.4005 143.597 54.7239 144.568 52.873 144.928C51.1554 145.384 49.3317 145.213 47.7289 144.445C46.1261 143.678 44.8489 142.365 44.1265 140.742C43.9773 140.419 43.9599 140.051 44.0781 139.715C44.1963 139.38 44.4407 139.104 44.7594 138.946C45.078 138.788 45.4457 138.76 45.7842 138.87C46.1227 138.979 46.4053 139.215 46.5718 139.53C47.0302 140.594 47.8579 141.457 48.9023 141.959C49.9467 142.461 51.1374 142.569 52.255 142.263C53.5008 142.021 54.6344 141.381 55.485 140.44C56.3356 139.498 56.8571 138.305 56.9708 137.042C56.9708 133.626 55.2538 131.995 52.1018 130.168C49.1642 128.588 46.8897 126.009 45.6904 122.897C45.095 120.892 45.1092 118.755 45.7312 116.759C46.3533 114.762 47.555 112.995 49.1836 111.683C47.555 110.371 46.3533 108.605 45.7312 106.608C45.1092 104.611 45.095 102.475 45.6904 100.47C46.8897 97.3579 49.1642 94.7783 52.1018 93.1989C55.2511 91.3716 56.9708 89.7406 56.9708 86.3925V86.3495C56.9767 85.1432 56.5816 83.9693 55.8476 83.012C55.1136 82.0548 54.0824 81.3686 52.916 81.0612C51.6815 80.7243 50.3682 80.8282 49.202 81.3549C48.0357 81.8816 47.0895 82.7983 46.5261 83.9472C46.3322 84.2423 46.0315 84.4509 45.6872 84.529C45.3428 84.6071 44.9816 84.5487 44.6793 84.3661C44.3771 84.1835 44.1574 83.8909 44.0663 83.5497C43.9752 83.2086 44.0199 82.8454 44.191 82.5365C45.0616 80.8763 46.4729 79.563 48.1914 78.8139C49.9099 78.0648 51.8326 77.9249 53.6415 78.4172C55.3801 78.8832 56.9155 79.9118 58.0078 81.3425C59.1001 82.7731 59.688 84.5253 59.6794 86.3253V86.3253Z" fill="white"/>
<path d="M51.0807 83.482C51.8083 83.482 52.5195 83.6978 53.1245 84.102C53.7294 84.5062 54.2009 85.0807 54.4793 85.7529C54.7578 86.4251 54.8306 87.1647 54.6887 87.8783C54.5467 88.5919 54.1964 89.2474 53.6819 89.7618C53.1675 90.2763 52.512 90.6267 51.7984 90.7686C51.0848 90.9105 50.3452 90.8377 49.673 90.5593C49.0008 90.2809 48.4263 89.8093 48.0221 89.2044C47.6179 88.5994 47.4021 87.8882 47.4021 87.1606C47.4042 86.1857 47.7925 85.2512 48.4819 84.5618C49.1713 83.8724 50.1057 83.4841 51.0807 83.482ZM50.1107 87.1606C50.1107 87.3525 50.1676 87.54 50.2742 87.6996C50.3808 87.8591 50.5323 87.9834 50.7095 88.0569C50.8868 88.1303 51.0818 88.1495 51.27 88.112C51.4582 88.0746 51.631 87.9822 51.7667 87.8466C51.9023 87.7109 51.9947 87.5381 52.0321 87.3499C52.0696 87.1617 52.0504 86.9667 51.9769 86.7894C51.9035 86.6122 51.7792 86.4607 51.6196 86.3541C51.4601 86.2475 51.2726 86.1906 51.0807 86.1906C50.8246 86.1934 50.5797 86.2966 50.3989 86.478C50.218 86.6594 50.1155 86.9045 50.1134 87.1606H50.1107Z" fill="white"/>
<path d="M54.7594 136.73C54.7594 137.457 54.5436 138.169 54.1394 138.773C53.7352 139.378 53.1607 139.85 52.4885 140.128C51.8163 140.407 51.0766 140.48 50.3631 140.338C49.6495 140.196 48.994 139.845 48.4795 139.331C47.9651 138.816 47.6147 138.161 47.4728 137.447C47.3308 136.734 47.4037 135.994 47.6821 135.322C47.9605 134.65 48.432 134.075 49.037 133.671C49.6419 133.267 50.3532 133.051 51.0807 133.051C52.0557 133.053 52.9901 133.441 53.6796 134.131C54.369 134.82 54.7572 135.755 54.7594 136.73V136.73ZM50.1107 136.73C50.1107 136.922 50.1676 137.109 50.2742 137.269C50.3808 137.428 50.5323 137.552 50.7095 137.626C50.8868 137.699 51.0818 137.719 51.27 137.681C51.4582 137.644 51.631 137.551 51.7667 137.416C51.9023 137.28 51.9947 137.107 52.0321 136.919C52.0696 136.731 52.0504 136.536 51.9769 136.359C51.9035 136.181 51.7792 136.03 51.6196 135.923C51.4601 135.817 51.2726 135.76 51.0807 135.76C50.8241 135.762 50.5786 135.865 50.3971 136.046C50.2157 136.228 50.1128 136.473 50.1107 136.73Z" fill="white"/>
<path d="M53.3755 115.38C53.4354 115.212 53.5283 115.057 53.6487 114.925C53.7691 114.793 53.9147 114.687 54.0768 114.612C54.2389 114.537 54.4144 114.495 54.593 114.488C54.7716 114.482 54.9496 114.511 55.1167 114.574C55.4514 114.702 55.7229 114.956 55.8734 115.281C56.024 115.606 56.0417 115.977 55.9228 116.316C55.8342 116.536 54.0714 121.824 60.3727 125.876C60.5616 126.002 60.7168 126.172 60.8246 126.371C60.9323 126.571 60.9894 126.794 60.9907 127.021C60.9928 127.28 60.916 127.534 60.7704 127.749C60.6749 127.901 60.5504 128.032 60.4039 128.135C60.2575 128.238 60.0921 128.312 59.9172 128.351C59.7423 128.39 59.5615 128.393 59.3851 128.362C59.2087 128.331 59.0402 128.265 58.8894 128.168C56.6498 126.985 54.882 125.072 53.8791 122.746C52.8762 120.42 52.6985 117.821 53.3755 115.38V115.38Z" fill="white"/>
<path d="M53.3753 108.024C52.9165 106.58 52.8033 105.048 53.0448 103.552C53.3485 101.818 54.0338 100.174 55.0511 98.7372C56.0684 97.3008 57.3922 96.1084 58.9269 95.2464C59.0771 95.1478 59.2456 95.0804 59.4224 95.0482C59.5991 95.0159 59.7806 95.0194 59.956 95.0585C60.1313 95.0976 60.2971 95.1714 60.4434 95.2757C60.5897 95.38 60.7137 95.5125 60.8078 95.6656C60.9535 95.8803 61.0303 96.1343 61.0282 96.3937C61.0267 96.6205 60.9695 96.8435 60.8618 97.0431C60.754 97.2426 60.5989 97.4127 60.4101 97.5384C54.1089 101.569 55.8717 106.857 55.9603 107.099C56.0236 107.266 56.0528 107.444 56.0464 107.623C56.04 107.801 55.998 107.977 55.923 108.139C55.8479 108.301 55.7412 108.447 55.6092 108.567C55.4772 108.688 55.3225 108.78 55.1542 108.84C54.9838 108.904 54.8025 108.933 54.6208 108.927C54.439 108.92 54.2604 108.877 54.0951 108.801C53.9298 108.726 53.7811 108.618 53.6576 108.484C53.5341 108.351 53.4382 108.194 53.3753 108.024V108.024Z" fill="white"/>
<path d="M63.1541 141.093C63.1186 140.772 63.2004 140.448 63.3844 140.182C63.5684 139.916 63.8423 139.725 64.1557 139.644C64.4692 139.564 64.8011 139.599 65.0905 139.744C65.3799 139.889 65.6074 140.133 65.7311 140.432C66.6323 142.264 67.1142 144.273 67.1418 146.314C67.0947 149.23 66.0269 152.037 64.1242 154.246C62.5372 156.135 60.6001 157.699 58.4195 158.852C58.1125 159.004 57.7591 159.033 57.4314 158.933C57.1038 158.833 56.8266 158.612 56.6567 158.315C55.8506 156.928 55.3347 154.526 57.5596 150.869C58.3379 149.613 59.2457 148.442 60.2682 147.376C61.9586 145.7 62.9839 143.468 63.1541 141.093V141.093ZM62.2942 149.222L62.2271 149.289C60.4491 150.975 59.2142 153.153 58.6801 155.544C59.923 154.697 61.0488 153.69 62.0282 152.548C63.5723 150.797 64.4186 148.539 64.4063 146.204C63.8228 147.288 63.1149 148.301 62.297 149.222H62.2942Z" fill="white"/>
<path d="M56.6566 65.747C56.8265 65.4496 57.1036 65.2283 57.4313 65.1284C57.7589 65.0285 58.1124 65.0575 58.4193 65.2095C60.6009 66.3626 62.5389 67.9265 64.1267 69.8152C66.0332 72.0227 67.1015 74.831 67.1443 77.7475C67.1215 79.7892 66.6394 81.7996 65.7336 83.6296C65.5947 83.9113 65.3632 84.1367 65.078 84.2681C64.7927 84.3996 64.471 84.429 64.1666 84.3516C63.8622 84.2742 63.5937 84.0946 63.4059 83.8428C63.2182 83.591 63.1226 83.2824 63.1352 82.9686C62.9757 80.5967 61.9573 78.3642 60.2707 76.6888C59.2483 75.6222 58.3405 74.4514 57.5621 73.1956C56.7288 72.1634 56.2021 70.9179 56.042 69.601C55.8819 68.2842 56.0949 66.9488 56.6566 65.747ZM62.2995 74.867C63.122 75.7851 63.8319 76.7981 64.4142 77.8846C64.2973 75.9776 63.7137 74.1285 62.7148 72.4999C61.7158 70.8712 60.3322 69.5129 58.6854 68.5442C59.2194 70.9357 60.4543 73.1136 62.2323 74.7998L62.2995 74.867Z" fill="white"/>
<path d="M167.97 112.403C167.97 111.649 168.582 111.037 169.335 111.037C170.089 111.037 170.7 111.649 170.7 112.403C170.7 113.156 170.089 113.768 169.335 113.768C168.582 113.768 167.97 113.156 167.97 112.403Z" fill="white"/>
<path d="M165.012 137.736L165.012 137.669C165.042 135.702 165.646 133.787 166.75 132.159C167.854 130.531 169.409 129.26 171.225 128.504C173.549 127.262 175.371 125.254 176.381 122.82C176.919 121.063 176.811 119.17 176.076 117.485C175.341 115.8 174.027 114.434 172.372 113.633C172.141 113.528 171.944 113.361 171.802 113.151C171.66 112.941 171.578 112.696 171.566 112.443L171.566 112.29C171.578 112.036 171.66 111.791 171.802 111.581C171.944 111.371 172.141 111.205 172.372 111.099C174.027 110.298 175.341 108.932 176.076 107.247C176.811 105.562 176.919 103.67 176.381 101.912C175.364 99.483 173.544 97.4767 171.225 96.2289C169.398 95.469 167.835 94.1889 166.731 92.5478C165.626 90.9066 165.028 88.9769 165.012 86.9987V86.9987C165.103 85.1152 165.823 83.3166 167.057 81.8907C168.291 80.4648 169.967 79.494 171.818 79.1336C173.536 78.678 175.36 78.8491 176.963 79.6163C178.565 80.3835 179.842 81.6966 180.565 83.3201C180.714 83.6429 180.732 84.0112 180.613 84.3466C180.495 84.682 180.251 84.9581 179.932 85.116C179.613 85.2739 179.246 85.3012 178.907 85.1922C178.569 85.0831 178.286 84.8462 178.12 84.5319C177.661 83.4676 176.834 82.6049 175.789 82.1027C174.745 81.6005 173.554 81.4927 172.436 81.7992C171.191 82.0405 170.057 82.6802 169.206 83.622C168.356 84.5637 167.834 85.7563 167.721 87.0202C167.721 90.4355 169.438 92.0665 172.59 93.8938C175.527 95.4732 177.802 98.0529 179.001 101.165C179.596 103.17 179.582 105.306 178.96 107.303C178.338 109.3 177.136 111.066 175.508 112.378C177.136 113.69 178.338 115.457 178.96 117.454C179.582 119.45 179.596 121.587 179.001 123.592C177.802 126.704 175.527 129.283 172.59 130.863C169.44 132.69 167.721 134.321 167.721 137.669L167.721 137.712C167.715 138.918 168.11 140.092 168.844 141.05C169.578 142.007 170.609 142.693 171.775 143C173.01 143.337 174.323 143.234 175.489 142.707C176.656 142.18 177.602 141.263 178.165 140.115C178.359 139.819 178.66 139.611 179.004 139.533C179.349 139.455 179.71 139.513 180.012 139.696C180.314 139.878 180.534 140.171 180.625 140.512C180.716 140.853 180.671 141.216 180.5 141.525C179.63 143.185 178.218 144.499 176.5 145.248C174.781 145.997 172.859 146.137 171.05 145.645C169.311 145.179 167.776 144.15 166.684 142.719C165.591 141.289 165.003 139.536 165.012 137.736V137.736Z" fill="white"/>
<path d="M173.611 140.58C172.883 140.58 172.172 140.364 171.567 139.96C170.962 139.556 170.49 138.981 170.212 138.309C169.934 137.637 169.861 136.897 170.003 136.183C170.145 135.47 170.495 134.814 171.009 134.3C171.524 133.785 172.179 133.435 172.893 133.293C173.607 133.151 174.346 133.224 175.018 133.502C175.691 133.781 176.265 134.252 176.669 134.857C177.074 135.462 177.289 136.174 177.289 136.901C177.287 137.876 176.899 138.811 176.21 139.5C175.52 140.189 174.586 140.578 173.611 140.58ZM174.581 136.901C174.581 136.709 174.524 136.522 174.417 136.362C174.311 136.203 174.159 136.078 173.982 136.005C173.805 135.931 173.61 135.912 173.421 135.95C173.233 135.987 173.06 136.08 172.925 136.215C172.789 136.351 172.697 136.524 172.659 136.712C172.622 136.9 172.641 137.095 172.714 137.272C172.788 137.45 172.912 137.601 173.072 137.708C173.231 137.814 173.419 137.871 173.611 137.871C173.867 137.868 174.112 137.765 174.293 137.584C174.473 137.402 174.576 137.157 174.578 136.901L174.581 136.901Z" fill="white"/>
<path d="M169.932 87.3319C169.932 86.6043 170.148 85.8931 170.552 85.2882C170.956 84.6832 171.531 84.2117 172.203 83.9333C172.875 83.6549 173.615 83.582 174.328 83.724C175.042 83.8659 175.697 84.2163 176.212 84.7307C176.726 85.2452 177.077 85.9007 177.219 86.6143C177.361 87.3278 177.288 88.0674 177.009 88.7396C176.731 89.4118 176.259 89.9864 175.654 90.3906C175.049 90.7948 174.338 91.0106 173.611 91.0106C172.636 91.0084 171.701 90.6202 171.012 89.9307C170.322 89.2413 169.934 88.3069 169.932 87.3319V87.3319ZM174.581 87.3319C174.581 87.14 174.524 86.9525 174.417 86.7929C174.311 86.6334 174.159 86.5092 173.982 86.4357C173.805 86.3623 173.61 86.343 173.421 86.3805C173.233 86.4179 173.06 86.5103 172.925 86.646C172.789 86.7817 172.697 86.9545 172.659 87.1427C172.622 87.3309 172.641 87.5259 172.714 87.7031C172.788 87.8804 172.912 88.0319 173.072 88.1385C173.231 88.2451 173.419 88.302 173.611 88.302C173.867 88.2999 174.113 88.197 174.294 88.0155C174.476 87.8341 174.579 87.5885 174.581 87.3319Z" fill="white"/>
<path d="M171.316 108.681C171.256 108.85 171.163 109.004 171.043 109.136C170.922 109.268 170.777 109.375 170.615 109.45C170.452 109.525 170.277 109.567 170.098 109.574C169.92 109.58 169.742 109.551 169.575 109.487C169.24 109.359 168.969 109.106 168.818 108.781C168.667 108.455 168.65 108.084 168.769 107.746C168.857 107.526 170.62 102.238 164.319 98.1855C164.13 98.06 163.975 97.8899 163.867 97.6903C163.759 97.4907 163.702 97.2677 163.701 97.0408C163.699 96.7814 163.775 96.5274 163.921 96.3126C164.017 96.161 164.141 96.0298 164.287 95.9266C164.434 95.8233 164.599 95.7501 164.774 95.7111C164.949 95.6722 165.13 95.6682 165.306 95.6995C165.483 95.7308 165.651 95.7967 165.802 95.8934C168.042 97.0766 169.809 98.9899 170.812 101.316C171.815 103.642 171.993 106.241 171.316 108.681V108.681Z" fill="white"/>
<path d="M171.316 116.038C171.775 117.482 171.888 119.014 171.647 120.51C171.343 122.243 170.658 123.888 169.64 125.324C168.623 126.761 167.299 127.953 165.765 128.815C165.614 128.914 165.446 128.981 165.269 129.014C165.092 129.046 164.911 129.042 164.735 129.003C164.56 128.964 164.394 128.89 164.248 128.786C164.102 128.682 163.978 128.549 163.884 128.396C163.738 128.181 163.661 127.927 163.663 127.668C163.665 127.441 163.722 127.218 163.83 127.019C163.937 126.819 164.092 126.649 164.281 126.523C170.582 122.493 168.82 117.204 168.731 116.963C168.668 116.795 168.639 116.617 168.645 116.439C168.651 116.26 168.693 116.085 168.768 115.923C168.844 115.761 168.95 115.615 169.082 115.495C169.214 115.374 169.369 115.281 169.537 115.221C169.708 115.158 169.889 115.129 170.071 115.135C170.252 115.142 170.431 115.184 170.596 115.26C170.762 115.336 170.91 115.444 171.034 115.577C171.157 115.711 171.253 115.868 171.316 116.038V116.038Z" fill="white"/>
<path d="M161.538 82.9685C161.573 83.2901 161.491 83.6137 161.307 83.8799C161.123 84.1461 160.849 84.3369 160.536 84.4173C160.222 84.4977 159.891 84.4623 159.601 84.3176C159.312 84.1728 159.084 83.9285 158.961 83.6295C158.059 81.7979 157.577 79.7886 157.55 77.7475C157.597 74.8318 158.665 72.025 160.567 69.8152C162.154 67.9267 164.092 66.3627 166.272 65.2095C166.579 65.0575 166.933 65.0285 167.26 65.1284C167.588 65.2283 167.865 65.4495 168.035 65.7469C168.841 67.1335 169.357 69.5357 167.132 73.1929C166.354 74.4487 165.446 75.6195 164.423 76.686C162.733 78.3621 161.708 80.5942 161.538 82.9685V82.9685ZM162.397 74.8401L162.465 74.7728C164.243 73.0867 165.477 70.9088 166.012 68.5173C164.769 69.3645 163.643 70.3719 162.663 71.5134C161.119 73.2649 160.273 75.5228 160.285 77.8576C160.869 76.7733 161.577 75.7606 162.395 74.8401L162.397 74.8401Z" fill="white"/>
<path d="M168.035 158.315C167.865 158.612 167.588 158.833 167.26 158.933C166.932 159.033 166.579 159.004 166.272 158.852C164.09 157.699 162.152 156.135 160.564 154.246C158.658 152.039 157.59 149.231 157.547 146.314C157.57 144.272 158.052 142.262 158.958 140.432C159.096 140.15 159.328 139.925 159.613 139.794C159.898 139.662 160.22 139.633 160.525 139.71C160.829 139.788 161.097 139.967 161.285 140.219C161.473 140.471 161.569 140.779 161.556 141.093C161.715 143.465 162.734 145.698 164.42 147.373C165.443 148.439 166.351 149.61 167.129 150.866C167.962 151.898 168.489 153.144 168.649 154.461C168.809 155.778 168.596 157.113 168.035 158.315ZM162.392 149.195C161.569 148.277 160.859 147.264 160.277 146.177C160.394 148.084 160.977 149.933 161.976 151.562C162.975 153.19 164.359 154.549 166.006 155.517C165.472 153.126 164.237 150.948 162.459 149.262L162.392 149.195Z" fill="white"/>
</svg>
